HIERARCHY
ROOT Hips
{
	OFFSET 0.00000 0.00000 0.00000
	CHANNELS 6 Xposition Yposition Zposition Yrotation Zrotation Xrotation 
	JOINT Lumbar
	{
		OFFSET 0 0 0
		CHANNELS 3 Zrotation Xrotation Yrotation
		JOINT Neck
		{
			OFFSET 0.00 0.2701 0.00
			CHANNELS 3 Zrotation Xrotation Yrotation
			End Site
			{
				OFFSET 0.00 0.1379 0.00
			}
		}
		JOINT RightShoulder
		{
			OFFSET 0.0119 0.2289 0.1181
			CHANNELS 3 Zrotation Xrotation Yrotation
			JOINT RightElbow
			{
				OFFSET 0.00 -0.1475 0.00
				CHANNELS 2 Zrotation Yrotation
				JOINT RightWrist
				{
					OFFSET 0.00 -0.1605 0.00
					CHANNELS 2 Zrotation Xrotation
					End Site
					{
						OFFSET 0.0040 -0.1068 0.0006
					}
				}
			}
		}
		JOINT LeftShoulder
		{
			OFFSET 0.0119 0.2289 -0.1181
			CHANNELS 3 Zrotation Xrotation Yrotation
			JOINT LeftElbow
			{
				OFFSET 0.00 -0.1475 0.00
				CHANNELS 2 Zrotation Yrotation
				JOINT LeftWrist
				{
					OFFSET 0.00 -0.1605 0.00
					CHANNELS 2 Zrotation Xrotation
					End Site
					{
						OFFSET 0.0040 -0.1068 -0.0006
					}
				}
			}
		}
	}
	JOINT RightHip
	{
		OFFSET 0.0316 -0.0424 0.0458
		CHANNELS 3 Zrotation Xrotation Yrotation
		JOINT RightKnee
		{
			OFFSET 0.00 -0.2438 0.00
			CHANNELS 1 Zrotation
			JOINT RightAnkle
			{
				OFFSET 0.00 -0.2449 0.00
				CHANNELS 3 Zrotation Xrotation Yrotation
				End Site
				{
					OFFSET 0.1237 -0.0542 0.0051
				}
			}
		}
	}
	JOINT LeftHip
	{
		OFFSET 0.0316 -0.0424 -0.0458
		CHANNELS 3 Zrotation Xrotation Yrotation
		JOINT LeftKnee
		{
			OFFSET 0.00 -0.2438 0.00
			CHANNELS 1 Zrotation
			JOINT LeftAnkle
			{
				OFFSET 0.00 -0.2449 0.00
				CHANNELS 3 Zrotation Xrotation Yrotation
				End Site
				{
					OFFSET 0.1237 -0.0542 -0.0051
				}
			}
		}
	}
}
MOTION
Frames: 11
Frame Time: 0.02
-0 0.57926 0 183.16477 0 3.72158 9.03571 -0.50779 -1.2027 -36.12735 2.33777 1.11512 28.30957 -12.53612 1.95236 10.0074 85.62245 0.96827 1.56078 27.67161 5.38912 -5.03826 6.40095 -74.5548 -5.7715 -0.30579 1.06613 3.50945 18.99317 -21.0431 11.59126 -10.46184 -14.38483 1.46759 -6.41734 -15.98862 -16.11928 7.06774 7.41628 12.52925
0.00034 0.5793 -0.00015 183.23402 0 3.72628 9.08622 -0.45847 -1.15083 -35.77127 2.15303 0.9482 27.84269 -12.12833 -0.52848 9.83699 85.43628 1.06208 1.56439 27.343 5.64217 -5.43272 6.58675 -74.58921 -5.90881 -0.17284 1.14708 3.53429 19.01153 -21.16496 11.56857 -10.44271 -14.4062 1.50421 -6.41059 -16.06816 -16.10867 7.02901 7.40607 12.53457
0.00068 0.57934 -0.00031 183.30276 0 3.73095 9.13646 -0.40943 -1.09946 -35.41621 1.96959 0.78231 27.37734 -11.72384 -2.99101 9.66746 85.25085 1.15481 1.56812 27.01527 5.89371 -5.82458 6.77096 -74.62335 -6.04507 -0.04079 1.22755 3.55902 19.02954 -21.28568 11.54605 -10.42375 -14.42747 1.54089 -6.40382 -16.14704 -16.0984 6.99057 7.39583 12.53979
0.00102 0.57937 -0.00046 183.3706 0 3.73564 9.18596 -0.36113 -1.04973 -35.06133 1.78918 0.6185 26.9131 -11.32746 -5.40939 9.50031 85.06619 1.24394 1.57198 26.68722 6.14242 -6.20902 6.95086 -74.65717 -6.17863 0.08933 1.30676 3.58341 19.0459 -21.40292 11.52426 -10.40558 -14.44875 1.57813 -6.397 -16.22378 -16.08925 6.95305 7.38513 12.54401
0.00136 0.57941 -0.00061 183.44379 0 3.74034 9.23921 -0.30904 -0.99146 -34.70498 1.59226 0.44317 26.44242 -10.88679 -8.0675 9.32118 84.87701 1.35196 1.5747 26.36011 6.40701 -6.63171 7.15389 -74.69322 -6.32668 0.23014 1.39249 3.60938 19.07045 -21.53843 11.49893 -10.38357 -14.47023 1.61233 -6.39057 -16.31155 -16.07398 6.91086 7.3766 12.55276
0.00171 0.57944 -0.00078 183.50521 0 3.74493 9.2846 -0.26494 -0.95121 -34.35245 1.4308 0.29272 25.98624 -10.54112 -10.21195 9.16714 84.69787 1.42005 1.58012 26.03185 6.63712 -6.97382 7.30759 -74.72415 -6.4438 0.3479 1.46447 3.63214 19.07804 -21.63527 11.48091 -10.3695 -14.49107 1.65299 -6.38324 -16.37611 -16.07177 6.87847 7.36367 12.55245
0.00209 0.57944 -0.00098 183.53772 0 3.75004 9.30758 -0.24302 -0.96249 -33.99819 1.36348 0.20643 25.55537 -10.45014 -10.97905 9.08436 84.54009 1.3744 1.59084 25.68691 6.78022 -7.08856 7.32607 -74.74455 -6.47663 0.40557 1.49801 3.64508 19.03381 -21.62327 11.48499 -10.37957 -14.5123 1.71284 -6.37377 -16.37427 -16.10604 6.87409 7.33606 12.52159
0.00247 0.57942 -0.00119 183.55773 0 3.75489 9.32275 -0.22911 -0.99165 -33.64971 1.33253 0.146 25.14148 -10.4562 -11.22118 9.02655 84.3934 1.28899 1.60456 25.34299 6.88722 -7.12292 7.29466 -74.75921 -6.47807 0.43945 1.51783 3.65495 18.97324 -21.57267 11.4962 -10.39737 -14.53249 1.77905 -6.3633 -16.34937 -16.15346 6.87944 7.30439 12.48249
0.00285 0.5794 -0.0014 183.58118 0 3.75931 9.34203 -0.2114 -1.01154 -33.306 1.28739 0.07663 24.72869 -10.42295 -11.67718 8.95582 84.24565 1.22403 1.61847 25.00688 7.00547 -7.19741 7.28534 -74.77411 -6.49311 0.48185 1.54425 3.66687 18.92343 -21.54096 11.50275 -10.41007 -14.55183 1.84156 -6.35304 -16.33663 -16.19462 6.87968 7.27623 12.4508
0.00324 0.57938 -0.00161 183.61409 0 3.76604 9.35908 -0.19433 -1.03631 -32.9308 1.2326 -0.00453 24.2782 -10.37019 -12.23597 8.89136 84.08131 1.14923 1.62635 24.6356 7.14516 -7.2569 7.27813 -74.79878 -6.51083 0.5336 1.56898 3.67605 18.8599 -21.50327 11.51484 -10.42903 -14.57685 1.90743 -6.34382 -16.31708 -16.23691 6.88274 7.2412 12.40395
0.00361 0.57937 -0.00182 183.6243 0 3.76792 9.37875 -0.17791 -1.05511 -32.62298 1.20629 -0.05507 23.91093 -10.38025 -12.4576 8.82025 83.95391 1.08522 1.64682 24.33819 7.23198 -7.32829 7.25508 -74.80203 -6.51566 0.5606 1.59415 3.69015 18.82061 -21.46922 11.51764 -10.43732 -14.58964 1.96786 -6.3322 -16.30587 -16.28003 6.88235 7.21931 12.38634
